<?xml version="1.0" encoding="UTF-8"?>
<svg width="192px" height="192px" viewBox="0 0 192 192" version="1.1" xmlns="http://www.w3.org/2000/svg" xmlns:xlink="http://www.w3.org/1999/xlink">
    <title>192x192@1x</title>
    <g id="192x192" stroke="none" stroke-width="1" fill="none" fill-rule="evenodd">
        <g id="open-mindmap" transform="translate(27, 34)" fill="#FF6B6B">
            <path d="M65.2942453,0.192083517 C59.8455194,1.55726816 56.0732557,5.16121182 54.5364241,10.4696141 C52.70243,16.8043764 55.6897191,23.6276034 61.685779,26.7992536 C63.6786478,27.8534745 64.4640698,27.9981715 68.203216,28 C72.0828879,28.0022158 72.664682,27.8853798 74.8553607,26.6671389 C84.6626198,21.2131409 84.2960895,6.40731353 74.2314984,1.46290056 C71.8349541,0.28555238 67.4240594,-0.341318119 65.2942453,0.192083517 M66.6757112,8.41163667 C65.2714183,8.9725578 63.4030866,11.3751699 63.0901196,13.0223193 C62.4389317,16.4479447 65.4121182,20 68.9305166,20 C73.5641418,20 76.2676535,15.7120696 74.4060861,11.3146261 C73.2746248,8.64134723 69.5776458,7.25284486 66.6757112,8.41163667 M26.9077072,14.3521949 C22.6763866,15.428857 18.6913715,18.6921892 16.9676837,22.4922536 C16.2247148,24.129858 16.0031749,25.5048062 16,28.4986303 C15.9946195,33.1761949 16.9424678,35.5035573 20.1669528,38.728062 C23.1446822,41.7063551 26.2156204,42.8131656 30.6297563,42.4984349 C32.4871786,42.3659648 34.6872671,42.1160988 35.5184918,41.9425173 C36.9400389,41.6465152 37.1885958,41.799541 39.6993805,44.5174618 C42.7000743,47.7670902 44.8141586,51.7407361 45.4868832,55.3973674 C45.7358903,56.7508463 45.9394188,61.1611867 45.9394188,65.1978702 L45.9394188,72.5380836 L56.0118258,82.7844167 C69.0714182,96.0702533 67.1149334,95.8400294 77.5363107,85.3173362 C81.7379125,81.0750958 86.2254447,76.3865681 87.5087547,74.8992488 L89.8421274,72.1941181 L90.0672695,62.9970395 L90.2924116,53.799504 L91.9526094,50.3941091 C93.000871,48.2435257 94.5710119,46.0079787 96.2136487,44.3283493 C98.6429319,41.8443067 98.9203069,41.6876266 100.407596,41.9548507 C101.283398,42.1124445 103.549679,42.3559154 105.444024,42.4966077 C108.535676,42.7254612 109.170126,42.6235963 111.640835,41.4985141 C120.764944,37.3448916 122.890285,25.0562351 115.670429,18.2052474 C112.571122,15.2644114 109.955872,14.1653664 106.017686,14.1484651 C101.716572,14.1301933 97.6009742,16.1053681 95.0095887,19.4308241 C91.9719716,23.329556 91.2299032,27.5160676 92.6302871,32.848674 L93.3926182,35.7502258 L90.041153,39.3186959 C83.8781133,45.8823605 81.9644054,51.3136343 81.9585518,62.2602317 L81.9553998,68.9248477 L77.6434784,73.6069802 C75.2722818,76.1819247 73.0510299,78.2891127 72.7074631,78.2891127 C72.1864842,78.2891127 72.0622058,74.9663974 71.9568393,58.2267458 L71.8307597,38.1639222 L70.7392709,36.9858519 C69.2506313,35.3788527 66.6097145,35.3523587 65.0562341,36.9287528 L63.9507864,38.0497238 L63.9507864,58.1696467 C63.9507864,74.1195024 63.8323617,78.2891127 63.3793758,78.2891127 C63.0650774,78.2891127 60.8555329,76.28516 58.4694769,73.8353769 L54.1305385,69.3816411 L53.9171038,61.616153 C53.7468964,55.4097008 53.5145497,53.2545495 52.7603237,50.8815077 C51.3968632,46.5903903 48.8554592,42.4861015 45.3454939,38.9066683 L42.275006,35.7758062 L43.0630034,33.3936285 C44.9024143,27.8307983 43.5596668,21.9884105 39.5724003,18.2052474 C35.8913271,14.7121481 31.1552379,13.2714217 26.9077072,14.3521949 M27.235249,23.6088612 C21.7500564,26.3640569 23.6694642,35 29.7671564,35 C33.6469267,35 35.9981786,32.7733704 36,29.0976786 C36.001819,25.7316654 33.9099466,23.427279 30.4966042,23.0348995 C29.411761,22.9103989 28.2031438,23.1229939 27.235249,23.6088612 M103.103845,23.7565027 C100.88837,24.9235968 99.7892725,27.0996711 100.033466,29.8358433 C100.197626,31.6746976 100.503208,32.2870535 101.873784,33.5206982 C103.241176,34.7516631 103.871895,35 105.629906,35 C108.463368,35 110.501041,33.7199037 111.475541,31.3276513 C112.365915,29.1421973 112.120812,27.1398695 110.753874,25.4332234 C108.774407,22.9614673 105.835901,22.3173994 103.103845,23.7565027 M11.3176117,51.4490768 C6.67273908,52.3691606 2.55622295,55.8705277 0.905221,60.3055025 C-3.25973528,71.4939189 7.67518117,82.5448412 18.842431,78.4330903 C20.1992038,77.9336034 21.6232547,77.4196909 22.0067392,77.2912128 C22.6216601,77.0851969 37.1940734,87.8210097 51.0802511,98.7109962 L54.9482872,101.744432 L55.1725472,111.557908 L55.3968072,121.370932 L56.8616733,122.685466 L58.3265395,124 L68.6007861,124 L78.8754811,124 L80.2551285,122.832878 L81.6352244,121.665755 L81.6352244,112.019527 L81.6352244,102.373299 L84.8869941,99.6950936 C86.6752431,98.2218777 93.9919491,92.5300712 101.145842,87.0460837 C110.655362,79.7561896 114.394225,77.1338834 115.049961,77.293016 C115.543333,77.4129289 117.158005,77.9511846 118.638121,78.4889896 C125.471322,80.9724492 132.927069,77.708654 136.064915,70.8605443 C136.795554,69.2669647 137.015329,67.9285382 137,65.170541 C136.97541,60.9925224 135.846037,58.2534589 132.953532,55.3584184 C126.117191,48.5166199 114.810003,50.5718192 110.475057,59.4440229 C109.336714,61.7742104 109.225929,62.427871 109.290516,66.4237663 L109.361831,70.8325947 L101.665677,76.6691081 C88.1522193,86.9171548 74.7011059,97.4266657 74.1225152,98.1889693 C73.7197443,98.7191106 73.5618653,101.317975 73.5618653,107.406486 L73.5618653,115.885592 L68.4038858,115.885592 L63.2459063,115.885592 L63.2459063,107.345628 C63.2459063,99.1248311 63.2082307,98.7632891 62.2367364,97.674606 C61.3612255,96.6936642 49.3826031,87.3566852 32.3926673,74.4119503 L27.3629645,70.5801464 L27.7002515,68.7769446 C28.238924,65.8931741 27.9254085,61.9495718 26.9875533,59.818638 C25.889128,57.3234575 23.2634921,54.3869434 20.8984464,53.0088464 C19.4030809,52.1374491 14.5047945,50.8224642 13.4897938,51.0199148 C13.3503041,51.0469628 12.3725306,51.2399054 11.3176117,51.4490768 M10.2857859,59.7135188 C8.1500563,60.7305963 7.00185926,62.7045033 7,65.3625611 C6.99816582,67.2918398 7.19853475,67.7283039 8.79040584,69.2675318 C10.4159795,70.8388921 10.8079455,71 13,71 C15.1920545,71 15.5840205,70.8388921 17.2095942,69.2675318 C18.8014653,67.7283039 19.0018342,67.2918398 19,65.3625611 C18.9981407,62.6696932 17.8300915,60.7006954 15.639422,59.6956675 C13.6057236,58.7629373 12.2728547,58.7674002 10.2857859,59.7135188 M120.527041,59.6974997 C117.432794,61.2687562 116.166924,64.6438655 117.568696,67.5851537 C119.606327,71.8619653 125.604018,72.1945016 128.101556,68.1695572 C129.309374,66.2236371 129.299474,64.1903254 128.071405,62.0144981 C126.449581,59.1408823 123.441735,58.21722 120.527041,59.6974997" id="形状"></path>
        </g>
    </g>
</svg>